<svg xmlns="http://www.w3.org/2000/svg" width="60" height="60" viewBox="0 0 60 60" fill="none"><g clip-path="url(#clip0_7037_16412)"><path d="M28.9688 0.433594C25.5703 2.44922 22.418 5.96484 20.6719 9.67969C19.4297 12.3398 18.6328 15.7734 18.6328 18.5156C18.6328 19.2539 18.6094 19.3477 18.4336 19.2891C18.3164 19.2539 17.6367 19.1719 16.9102 19.1016C14.5898 18.8672 11.9297 19.2773 9.65625 20.2031C6.1875 21.6211 3.10547 24.5391 1.52344 27.9258C0.914063 29.2148 0.855469 29.5312 1.125 29.9766C1.46484 30.5625 2.26172 30.7734 2.76563 30.4102C2.90625 30.3164 3.30469 29.6484 3.66797 28.9219C5.74219 24.6797 9.67969 21.9258 14.3555 21.4453C15.6094 21.3164 17.4492 21.4219 18.3984 21.6797L18.8203 21.7969L19.0313 22.9219C19.9922 28.1016 23.0039 32.8711 27.3398 36.1289C28.0313 36.6445 28.5938 37.125 28.5938 37.1953C28.5938 37.5703 28.0313 39.2344 27.5859 40.1836C25.6523 44.3086 21.8203 47.1445 17.3789 47.7539L16.7578 47.8359V45.5625V43.3008L19.5586 40.5C21.3984 38.6602 22.3828 37.5938 22.418 37.3945C22.5703 36.6328 21.7617 35.8477 21.0234 36.0234C20.8008 36.082 19.9805 36.8086 18.7266 38.0625L16.7578 40.0078V35.4609V30.9141L16.3477 30.5039C15.9727 30.1289 15.8789 30.0938 15.4922 30.1523C15.2109 30.1992 14.9414 30.3516 14.7422 30.5859L14.4141 30.9375V32.9531V34.9805L13.125 33.6914C11.8594 32.4258 11.8242 32.4023 11.2969 32.4023C10.5938 32.4023 10.1953 32.8242 10.1953 33.5391C10.1953 34.0195 10.2539 34.0898 12.3047 36.1523L14.4141 38.2734V43.043V47.8242L13.8516 47.7422C11.7656 47.4492 9.30469 46.4414 7.6875 45.2109C5.90625 43.8633 4.45313 42.0703 3.51563 40.043C3 38.9297 2.73047 38.6719 2.07422 38.6719C1.57031 38.6719 1.11328 39.0352 0.984375 39.5391C0.890625 39.9492 1.27734 40.9688 2.02734 42.2812C4.40625 46.4531 8.47266 49.2656 13.2188 50.0156L14.4141 50.2031V53.9297V57.6562H7.67578C2.0625 57.6562 0.867188 57.6797 0.597656 57.8203C-0.175781 58.2305 -0.175781 59.4258 0.597656 59.8359C1.08984 60.082 58.9102 60.082 59.4023 59.8359C60.1758 59.4258 60.1758 58.2305 59.4023 57.8203C59.1328 57.6797 57.8906 57.6562 51.9727 57.6562H44.8828V53.9531C44.8828 50.4727 44.8945 50.25 45.0938 50.332C45.8672 50.6602 47.1445 50.9883 48.0703 51.1055C52.6758 51.668 57.3164 48.9609 59.1211 44.6719C59.7773 43.1016 59.9414 42.2109 59.9297 40.3711C59.918 38.4375 59.6953 37.4883 58.9102 35.8125C58.0664 34.043 56.7422 32.5312 55.1367 31.5L54.4453 31.043L54.4688 29.7305C54.5156 28.2539 54.3281 27.1055 53.8477 25.8398C52.7344 22.875 50.0859 20.4961 46.9336 19.6289C45.8086 19.3242 43.6172 19.2773 42.3984 19.5469L41.3672 19.7578V18.7266C41.3672 12.9258 38.8242 7.11328 34.5586 3.11719C32.8945 1.57031 30.5977 0 30 0C29.8359 0 29.3789 0.199219 28.9688 0.433594ZM30.7734 3.05859C32.5313 4.28906 33.9375 5.67188 35.2969 7.5C37.793 10.8633 39.1758 15.3633 39 19.5469L38.9297 20.9062L38.543 21.1992C37.7461 21.7734 36.2227 23.4258 35.7539 24.2227C34.6992 25.9922 34.2656 27.7734 34.3594 29.9883L34.418 31.3945L33.293 32.4961C32.6719 33.0938 31.9453 33.7617 31.6758 33.9727L31.1719 34.3594V27.5156V20.6836L33 18.8672C33.9961 17.8711 34.8984 16.8984 34.9922 16.7227C35.3672 16.0195 34.7461 15.1172 33.9023 15.1172C33.5273 15.1172 33.3516 15.2461 32.332 16.2539L31.1719 17.3906V14.7773C31.1719 11.9531 31.1133 11.6602 30.5273 11.3906C29.9297 11.1211 29.2734 11.3086 28.9922 11.8477C28.8633 12.1172 28.8281 13.125 28.8281 17.543V22.8984L27.2109 21.293C25.7109 19.8047 25.5586 19.6875 25.1484 19.6875C24.5859 19.6875 24.3047 19.8398 24.0703 20.2969C23.707 21 23.8359 21.1992 26.4258 23.7891L28.8281 26.1914V30.2695V34.3594L28.3359 33.9609C24.7734 31.1719 22.207 26.9414 21.3281 22.418C19.8984 15.0586 23.0273 7.39453 29.2266 3.05859C29.6133 2.80078 29.9531 2.57812 30 2.57812C30.0469 2.57812 30.3867 2.80078 30.7734 3.05859ZM46.8516 22.0664C48.0938 22.5 48.9141 23.0273 49.9219 24.0234C51.7734 25.875 52.4883 28.2773 52.0078 31.0664C51.8203 32.1562 51.9258 32.3438 53.1797 33.0586C54.9141 34.0547 55.9453 35.1211 56.7656 36.75C57.4102 38.0508 57.5859 38.8711 57.5859 40.5469C57.5859 42.2227 57.3398 43.1836 56.543 44.6133C56.0039 45.5742 54.4922 47.1094 53.5313 47.6719C52.0078 48.5625 49.9219 49.0078 48.293 48.7734C47.2617 48.6211 46.0664 48.2578 45.3984 47.8828L44.9414 47.625L44.9063 44.1211L44.8828 40.6055L47.2734 38.2031C48.8203 36.6562 49.6992 35.6836 49.7578 35.4727C49.9219 34.7695 49.3242 34.1016 48.5039 34.1016C48.1758 34.1016 47.9063 34.3125 46.5 35.707L44.8828 37.3125V36.0586C44.8828 34.5117 44.7305 34.0547 44.1211 33.7969C43.7813 33.6562 43.6055 33.6445 43.2891 33.75C42.5391 33.9961 42.5391 33.9961 42.5391 38.0508C42.5391 40.0664 42.5039 41.7188 42.457 41.7188C42.4102 41.7188 41.7305 41.0859 40.957 40.3125C39.5508 38.9297 39.5273 38.9062 38.9883 38.9062C38.543 38.9062 38.4141 38.9648 38.1563 39.2695C37.957 39.5039 37.8516 39.7617 37.8516 40.043C37.8516 40.4414 38.0156 40.6406 40.1953 42.832L42.5508 45.1992L42.5156 46.4062L42.4805 47.6133L41.7891 48C40.3125 48.8086 37.9336 49.0547 36.3633 48.5508C33.8906 47.7422 32.0391 45.7969 31.4063 43.2891C30.7969 40.9219 31.4648 38.4258 33.1758 36.6211C34.0898 35.6602 34.8867 35.1562 36.1641 34.7109C37.5938 34.207 37.793 33.75 37.2188 32.3203C35.6602 28.418 37.4766 24.0234 41.3438 22.3008C42.4219 21.832 43.2773 21.6797 44.707 21.7266C45.7148 21.7617 46.1836 21.832 46.8516 22.0664ZM28.8281 50.332V57.6562H22.793H16.7578V53.9297V50.2031L17.9883 50.0156C21.9375 49.3828 25.6289 47.1797 28.0078 44.0156C28.4297 43.4648 28.7813 43.0078 28.793 43.0078C28.8164 43.0078 28.8281 46.3008 28.8281 50.332ZM33.5156 49.8164C35.2969 50.8711 37.5469 51.3516 39.5156 51.1055C40.1133 51.0234 40.9805 50.8359 41.4609 50.6719C41.9297 50.5195 42.3633 50.3906 42.4219 50.3906C42.4922 50.3906 42.5391 51.7266 42.5391 54.0234V57.6562H36.8555H31.1719V52.7812V47.9062L31.9336 48.6094C32.3438 49.0078 33.0586 49.5469 33.5156 49.8164Z" fill="white"></path><path d="M51.504 0.17578C48.9376 0.73828 46.8985 2.74219 46.2306 5.33203C45.9962 6.23437 46.0079 7.80469 46.2423 8.71875C46.8634 11.1211 48.8673 13.1133 51.3282 13.7695C52.172 13.9922 53.7892 13.9922 54.6681 13.7695C57.6329 13.0078 59.754 10.4766 59.965 7.45312C60.1056 5.4375 59.3907 3.58594 57.9142 2.10937C56.1681 0.36328 53.836 -0.339845 51.504 0.17578ZM54.6095 2.625C55.3126 2.87109 56.2032 3.5625 56.7423 4.27734C58.1603 6.15234 57.8556 8.83594 56.0392 10.5117C55.8634 10.6641 55.3829 10.9687 54.961 11.168C54.2462 11.5195 54.1173 11.543 52.9689 11.543C51.8439 11.543 51.6798 11.5078 51.0353 11.1914C50.1329 10.7461 49.2423 9.85547 48.797 8.96484C48.4923 8.32031 48.4571 8.15625 48.4571 7.03125C48.4571 5.92969 48.4923 5.73047 48.7735 5.12109C49.6173 3.31641 51.3048 2.28516 53.2032 2.39062C53.6837 2.42578 54.3165 2.53125 54.6095 2.625Z" fill="white"></path><path d="M0.738385 33.5742C-0.421771 34.0781 -0.0936463 35.7422 1.16026 35.7422C2.28526 35.7422 2.77745 34.2891 1.85167 33.7148C1.41807 33.4336 1.13682 33.3984 0.738385 33.5742Z" fill="white"></path></g><defs><clipPath id="clip0_7037_16412"><rect width="60" height="60" fill="white"></rect></clipPath></defs></svg>