<svg xmlns="http://www.w3.org/2000/svg" width="60" height="60" viewBox="0 0 60 60" fill="none"><path d="M27.5973 1.17173C25.3121 1.41782 23.0035 2.05063 22.4762 2.57798C22.0309 3.02329 22.0309 3.60923 22.4762 4.10141C22.8746 4.55844 23.1793 4.57016 24.5504 4.17173C28.816 2.91782 33.2574 3.30454 37.1715 5.28501C39.2574 6.33969 41.5309 8.27329 42.9371 10.1952C43.8394 11.4256 43.8394 11.4256 42.1637 10.6053C39.4098 9.25766 35.8707 8.29673 33.1051 8.12094L31.898 8.05063L30.5973 6.90219C29.8707 6.26938 29.1676 5.67173 29.0269 5.56626C28.3004 5.06235 27.3043 5.64829 27.3043 6.57407C27.3043 7.00766 27.3629 7.13657 27.8316 7.58188C28.3238 8.05063 28.3355 8.08579 28.0894 8.13266C27.9488 8.1561 27.1754 8.28501 26.3668 8.42563C24.316 8.75376 22.9801 9.16391 22.6519 9.55063C22.2887 9.97251 22.3004 10.5467 22.6871 11.0038C23.0621 11.4608 23.4371 11.4725 24.984 11.0858C27.4215 10.4647 30.1988 10.2186 32.5777 10.4295C33.9957 10.5467 36.4684 10.9452 36.7027 11.0975C36.7613 11.1209 36.2926 11.5663 35.6598 12.0819C33.7262 13.6522 33.6324 13.7577 33.6324 14.3084C33.6324 15.1405 34.441 15.6913 35.2144 15.3983C35.3199 15.3514 36.3277 14.5663 37.4644 13.6405L39.5035 11.9647L40.0543 12.1991C41.7301 12.9139 44.8824 14.742 44.8824 14.9999C44.8824 15.1874 43.6402 16.5702 42.9254 17.1913C40.6168 19.1952 37.9684 20.5194 35.0387 21.1639C33.6207 21.4803 29.7769 21.4803 28.359 21.1639C25.523 20.5428 23.0621 19.3475 20.7652 17.4374C18.6559 15.7147 16.5934 14.6014 14.4371 14.0624C13.9918 13.9452 13.9449 13.8983 14.0152 13.6756C14.1559 13.2186 14.7769 12.035 15.3277 11.1913C16.0426 10.078 16.1598 9.76157 16.0426 9.33969C15.8316 8.60141 15.1168 8.26157 14.4605 8.57798C13.816 8.88266 12.3277 11.4022 11.5426 13.535C11.1559 14.5897 11.1207 14.742 11.2379 15.1405C11.4137 15.7147 11.6832 15.8788 12.8902 16.1131C15.234 16.5819 17.0504 17.4608 19.1246 19.1366C22.0426 21.492 24.5855 22.7342 27.8551 23.4374C29.5074 23.8006 32.6598 23.8827 34.4059 23.6249C39.1285 22.9334 43.4762 20.4959 46.441 16.8983L46.7574 16.4999L47.1676 16.8631C47.3902 17.0624 48.0113 17.7069 48.5504 18.3045C50.3434 20.3084 50.4254 20.3905 50.9059 20.3905C51.5269 20.3905 52.0309 19.8749 52.0309 19.2538C52.0309 18.8788 51.9019 18.6444 51.2457 17.8124C50.8238 17.2616 49.8043 16.16 48.984 15.3514C47.8707 14.2499 47.4605 13.7694 47.3434 13.4178C47.0738 12.5741 46.0777 10.6756 45.2809 9.45688C44.3668 8.09751 42.3394 5.92954 41.0504 4.9686C38.6012 3.12876 35.6832 1.86313 32.6715 1.34751C31.3707 1.12485 28.816 1.04282 27.5973 1.17173Z" fill="white"></path><path d="M17.9062 5.02753C17.5898 5.30878 17.5195 5.44941 17.5195 5.85956C17.5195 6.70331 18.4102 7.27753 19.1367 6.90253C20.2617 6.32831 19.8398 4.68769 18.5859 4.68769C18.4219 4.68769 18.1172 4.84003 17.9062 5.02753Z" fill="white"></path><path d="M7.1954 20.1562C7.05478 20.2031 6.84384 20.3906 6.71493 20.5547C6.29306 21.0937 5.27353 24.1406 4.92196 25.9453C4.80478 26.5078 4.64071 26.8242 4.0079 27.6562C-0.163972 33.1406 -1.12491 40.1015 1.40634 46.4297C4.73446 54.7734 13.5118 59.6953 22.336 58.1836C23.4493 57.9961 23.8712 57.7734 24.1173 57.2578C24.2579 56.9765 24.2345 56.8242 23.9298 55.8633C23.0977 53.3203 22.9571 51.2344 23.4376 48.457C24.2813 43.5469 23.2032 38.5898 20.379 34.3359C19.4298 32.8945 16.9806 30.4336 15.5274 29.4609C13.0899 27.8086 10.6056 26.7656 8.12118 26.3437C7.65243 26.2734 7.26571 26.1797 7.26571 26.1445C7.26571 25.875 7.93368 23.6836 8.33212 22.6172C8.73056 21.5508 8.80087 21.2461 8.71884 20.9531C8.54306 20.3437 7.73446 19.9219 7.1954 20.1562ZM9.92587 29.2383C13.6759 30.4922 17.004 33.164 19.0196 36.5508C21.0587 39.9844 21.8438 44.4023 21.0938 48.2812C20.6954 50.332 20.754 53.0039 21.2227 54.914C21.3517 55.4648 21.4337 55.957 21.3868 55.9922C21.3399 56.039 20.3556 56.0742 19.1837 56.0625C16.8048 56.0625 15.5509 55.8633 13.629 55.1836C8.76571 53.4609 4.86337 49.5 3.22275 44.6133C2.60165 42.7383 2.41415 41.5898 2.41415 39.375C2.41415 37.125 2.5665 36.0586 3.15243 34.2422C3.56259 33.0117 4.20712 31.5234 4.34775 31.5234C4.40634 31.5234 4.45322 31.9453 4.45322 32.4609C4.45322 35.1797 5.34384 38.8359 6.78525 42.0703L7.3829 43.4297L7.03134 45.1758C6.84384 46.125 6.67978 47.039 6.67978 47.1914C6.67978 47.6601 7.27743 48.164 7.82821 48.164C8.49618 48.164 8.85946 47.8359 9.03524 47.0508C9.11728 46.6992 9.21103 46.4062 9.24618 46.4062C9.28134 46.4062 9.55087 46.7461 9.84384 47.1445C10.5704 48.1406 12.8673 50.4961 13.2071 50.5781C13.9337 50.7656 14.6485 50.2031 14.6485 49.4531C14.6485 48.9961 14.5782 48.8906 13.5001 47.7773C11.6251 45.8086 10.2774 43.8867 9.14071 41.5429C8.48446 40.207 7.5704 37.7929 7.64071 37.6054C7.66415 37.5586 8.43759 37.8047 9.36337 38.1562C11.3556 38.9062 11.8009 38.9531 12.2345 38.4258C12.6446 37.9336 12.6446 37.3828 12.2227 36.9258C11.9767 36.6679 11.3087 36.3633 9.46884 35.6836C7.85165 35.0742 7.01962 34.7109 6.97275 34.582C6.76181 33.8906 6.67978 30.0703 6.86728 28.875L6.91415 28.5L7.82821 28.6758C8.3204 28.7695 9.26962 29.0156 9.92587 29.2383Z" fill="white"></path><path d="M52.3479 26.7539C50.5081 28.6171 49.2659 29.4257 46.8284 30.3398C42.68 31.8984 39.5862 34.3242 37.2425 37.8398C35.0979 41.0742 34.0901 44.4609 34.0901 48.4336C34.1018 50.5664 34.3714 52.3593 34.969 54.2226C35.2034 54.914 35.344 55.5234 35.2972 55.5703C35.1565 55.7109 33.0589 56.2382 31.8284 56.4257C30.5862 56.625 30.3987 56.6953 30.1057 57.0351C29.637 57.5625 29.8245 58.4296 30.469 58.7695C30.8089 58.9453 30.9378 58.9453 32.0159 58.7812C33.3284 58.5703 35.0628 58.1484 36.2815 57.7382C37.0432 57.4921 37.1487 57.4804 37.969 57.6211C39.2698 57.832 42.3636 57.832 43.7698 57.5976C48.0354 56.9179 51.6214 55.0546 54.5745 51.9843C57.6097 48.8437 59.4143 45 59.8831 40.6757C60.1761 38.0976 59.8011 34.8398 58.9339 32.3906C58.1722 30.2226 56.555 27.5039 55.1604 26.0156C54.6682 25.5 54.5511 25.4296 54.1292 25.4296C53.6839 25.4296 53.5901 25.5 52.3479 26.7539ZM54.6917 29.2031C58.1722 34.3007 58.6057 40.7695 55.8401 46.3007C54.2581 49.4414 51.1761 52.4414 48.0354 53.8945C46.1604 54.7617 43.5354 55.4296 42.0237 55.4296H41.4378L42.4807 54.75C45.2347 52.9687 47.6722 50.5781 49.5589 47.8476L50.2151 46.8867L51.9964 46.289C53.4378 45.7968 53.8362 45.6211 54.0823 45.3281C54.4222 44.9297 54.4573 44.5547 54.1995 44.0625C53.8831 43.4531 53.3089 43.3242 52.3831 43.6523C52.0198 43.7812 51.9026 43.7929 51.9495 43.6757C52.8753 41.4375 53.5667 39.2226 53.5784 38.5078C53.5901 38.1328 53.5198 37.9804 53.2151 37.7109C52.4534 37.0312 51.5745 37.3945 51.2698 38.5312C50.1097 42.7148 48.2112 46.2304 45.6214 49.0195C45.3284 49.3359 45.0823 49.5703 45.0589 49.5468C45.0472 49.5234 44.8831 48.6679 44.719 47.6367C44.3323 45.3867 44.1917 45.1289 43.2893 45.1172C42.9143 45.1172 42.7268 45.1875 42.4925 45.4218C42.094 45.832 42.094 46.1132 42.5862 49.1015L42.9847 51.5039L42.7386 51.7148C41.4261 52.7695 37.805 54.8437 37.6175 54.6445C37.4417 54.4687 36.8089 52.2187 36.6214 51.1523C36.3753 49.7461 36.387 47.0625 36.6331 45.6093C37.219 42.1171 38.8011 39.0937 41.3557 36.5507C43.3245 34.6054 45.1995 33.4101 47.8479 32.4609C49.9222 31.6992 51.7268 30.6093 53.1917 29.2148C53.6839 28.7461 54.094 28.3711 54.094 28.3593C54.1057 28.3593 54.3753 28.7461 54.6917 29.2031Z" fill="white"></path></svg>