<svg xmlns="http://www.w3.org/2000/svg" width="60" height="60" viewBox="0 0 60 60" fill="none"><path d="M29.4258 0.164064C28.875 0.468752 28.8398 0.67969 28.8281 3.84375C28.8281 7.06641 28.875 7.32422 29.4727 7.59375C30.0703 7.86328 30.7266 7.67578 31.0078 7.13672C31.2305 6.70313 31.2539 1.11328 31.0313 0.644533C30.7734 0.0820332 30 -0.152342 29.4258 0.164064Z" fill="white"></path><path d="M11.4024 8.34343C10.6759 8.53093 10.3946 9.49186 10.8751 10.1598C11.004 10.3356 11.8712 11.238 12.7969 12.1403C13.9923 13.3239 14.5782 13.8161 14.8477 13.8747C15.6212 14.0505 16.3946 13.277 16.2305 12.5036C16.1251 12.0231 12.5157 8.37858 12.0704 8.29655C11.9063 8.27312 11.6016 8.29655 11.4024 8.34343Z" fill="white"></path><path d="M47.93 8.29685C47.4847 8.36716 43.8754 12.0117 43.7699 12.5039C43.6761 12.9843 43.9574 13.5351 44.4379 13.7812C45.1175 14.1328 45.4574 13.9101 47.473 11.8711C48.5863 10.7461 49.3246 9.90232 49.3597 9.72654C49.43 9.35154 49.266 8.74216 49.055 8.56638C48.8207 8.37888 48.2816 8.23826 47.93 8.29685Z" fill="white"></path><path d="M28.3008 10.1482C25.5703 10.5701 24.1055 11.0154 22.1367 12.0232C17.2969 14.4958 13.9102 18.9255 12.75 24.2927C12.3867 26.0037 12.3867 29.2966 12.75 31.0076C13.5 34.4998 14.9766 37.324 17.3438 39.7732C18.5273 40.9919 19.793 42.0115 21.0352 42.738L21.7969 43.1833V47.8357C21.7969 53.2732 21.8555 53.7185 22.6875 55.4294C23.1445 56.3552 23.4141 56.7185 24.2461 57.5505C25.0898 58.3943 25.4414 58.6521 26.3672 59.0974C28.1484 59.9646 29.7891 60.1873 31.6172 59.8123C34.125 59.2966 36.1992 57.6912 37.3125 55.406C38.1562 53.6833 38.2031 53.2498 38.2031 47.8474V43.1833L38.9648 42.738C40.2305 41.9998 41.4961 40.9802 42.7148 39.7029C45.0352 37.3005 46.5117 34.4763 47.2383 31.0544C47.5898 29.4255 47.625 26.156 47.3086 24.5857C47.0039 23.074 46.5703 21.6443 46.1016 20.6365C45.5625 19.4646 45.3164 19.2185 44.707 19.2185C44.1094 19.2185 43.7695 19.4529 43.5938 19.9685C43.4766 20.3318 43.5117 20.4958 44.0039 21.6912C46.0195 26.5544 45.5039 31.7576 42.5977 36.1521C41.3203 38.074 39.2109 39.9958 37.2422 41.0154C35.7539 41.7888 35.8594 41.4021 35.8594 46.3591V50.6248H30H24.1406V46.3591C24.1406 41.4021 24.2461 41.7888 22.7578 41.0154C21.5391 40.3826 20.0391 39.2341 19.0195 38.1677C15.1289 34.0662 13.8047 28.2888 15.5391 22.9919C16.2773 20.7419 17.5547 18.6794 19.3125 16.9333C23.7539 12.5037 30.1289 11.238 35.9648 13.6521C37.1602 14.1443 37.3242 14.1794 37.6875 14.0623C38.2031 13.8865 38.4375 13.5466 38.4375 12.949C38.4375 12.5974 38.3672 12.3982 38.1797 12.2224C37.5352 11.6365 35.4023 10.8396 33.3984 10.4294C32.2031 10.1833 29.1562 10.0193 28.3008 10.1482ZM35.7422 53.0037C35.7422 53.0271 35.6367 53.3552 35.5078 53.7302C34.5469 56.531 31.4766 58.2068 28.6523 57.4802C26.6602 56.9646 25.1367 55.5935 24.4922 53.7302C24.3633 53.3552 24.2578 53.0271 24.2578 53.0037C24.2578 52.9919 26.8477 52.9685 30 52.9685C33.1641 52.9685 35.7422 52.9919 35.7422 53.0037Z" fill="white"></path><path d="M41.028 15.0469C40.0084 15.6094 40.442 17.2266 41.6022 17.2266C42.1999 17.2266 42.7741 16.6523 42.7741 16.0664C42.7741 15.1875 41.8014 14.6133 41.028 15.0469Z" fill="white"></path><path d="M17.6838 24.3042C17.1448 24.6089 17.0744 24.9956 17.1448 27.2808C17.1916 28.8862 17.2502 29.5659 17.4494 30.2925C18.2698 33.3745 20.3909 35.894 23.2854 37.23C24.5627 37.8159 25.758 38.0972 27.3987 38.1675L28.8284 38.2378V41.2729C28.8284 44.5659 28.8752 44.8237 29.4729 45.0933C29.8596 45.269 30.1409 45.269 30.5276 45.0933C31.1252 44.8237 31.1721 44.5659 31.1721 41.2729V38.2378L32.6135 38.1675C33.4807 38.1323 34.4182 38.0034 34.9807 37.8628C38.6604 36.9019 41.5666 33.9956 42.551 30.2925C42.7502 29.5659 42.8088 28.8862 42.8557 27.2808C42.9494 24.0698 42.9729 24.0815 39.7971 24.1753C37.4182 24.2339 36.5159 24.4097 35.0041 25.1128C33.1877 25.9565 31.4651 27.4448 30.5276 28.9917C30.2698 29.4136 30.0354 29.7534 30.0002 29.7534C29.9651 29.7534 29.7307 29.4136 29.4729 28.9917C28.5354 27.4448 26.8127 25.9565 24.9963 25.1128C23.4494 24.398 22.5823 24.2339 20.1565 24.187C18.3869 24.1401 17.9299 24.1636 17.6838 24.3042ZM22.2307 26.6597C22.8166 26.7651 23.5432 27.023 24.258 27.3745C25.1838 27.8315 25.5354 28.0894 26.3791 28.9331C27.7619 30.3276 28.4182 31.6401 28.7698 33.6909L28.8518 34.1597L27.3987 32.73C26.5549 31.898 25.8166 31.2769 25.6291 31.23C24.7385 31.0073 23.9768 31.769 24.1994 32.6597C24.2463 32.8472 24.8674 33.5855 25.6994 34.4292L27.1291 35.8823L26.6604 35.8003C24.6096 35.4487 23.2971 34.7925 21.9026 33.4097C21.0588 32.5659 20.801 32.2144 20.344 31.2886C19.7229 30.023 19.4534 28.8394 19.4534 27.4097V26.4839H20.3791C20.8948 26.4839 21.7268 26.5659 22.2307 26.6597ZM40.5471 27.4214C40.5471 28.8159 40.2659 30.0112 39.6448 31.2886C39.1877 32.2261 38.9416 32.5659 38.0979 33.4097C36.7034 34.7925 35.3909 35.4487 33.3401 35.8003L32.8713 35.8823L34.301 34.4292C35.133 33.5855 35.7541 32.8472 35.801 32.6597C36.0237 31.769 35.2619 31.0073 34.3713 31.23C34.1838 31.2769 33.4455 31.898 32.6018 32.73L31.1487 34.1597L31.2307 33.6909C31.5823 31.6401 32.2385 30.3276 33.6213 28.9331C35.2737 27.2808 37.1135 26.519 39.5276 26.4956L40.5471 26.4839V27.4214Z" fill="white"></path><path d="M3.64482 26.6482C2.85967 27.0818 2.8831 28.324 3.6917 28.6872C4.16045 28.8982 9.04717 28.8865 9.48076 28.6638C10.2542 28.2536 10.2542 27.0583 9.48076 26.6482C9.02373 26.4138 4.0667 26.4138 3.64482 26.6482Z" fill="white"></path><path d="M50.5196 26.6484C49.9688 26.9531 49.7813 27.6328 50.086 28.2305C50.3789 28.7812 50.6602 28.8281 53.4492 28.8281C56.25 28.8281 56.543 28.7695 56.8125 28.1836C57.0821 27.5859 56.8946 26.9297 56.3555 26.6484C55.8985 26.4141 50.9414 26.4141 50.5196 26.6484Z" fill="white"></path><path d="M14.5782 41.5542C14.0392 41.8237 10.711 45.2339 10.6407 45.5854C10.5001 46.3823 11.004 47.0151 11.7657 47.0151C12.3165 47.0151 12.5626 46.8276 14.4845 44.8589C16.2774 43.0425 16.4532 42.7378 16.1134 42.0815C15.9376 41.73 15.4103 41.3667 15.0939 41.3667C15.0118 41.3667 14.7774 41.4487 14.5782 41.5542Z" fill="white"></path><path d="M44.3911 41.5542C44.2153 41.6479 43.9809 41.8823 43.8755 42.0815C43.5473 42.7378 43.7231 43.0425 45.5161 44.8589C47.438 46.8276 47.6841 47.0151 48.2348 47.0151C48.9966 47.0151 49.5005 46.3823 49.3598 45.5854C49.2895 45.2104 45.9028 41.7417 45.3872 41.5308C44.9184 41.3315 44.7895 41.3315 44.3911 41.5542Z" fill="white"></path></svg>